<svg width="190" height="55" viewBox="0 0 190 55" fill="none" xmlns="http://www.w3.org/2000/svg">
<path d="M188.43 48.4268C188.43 51.3439 186.017 53.7069 183.034 53.7069H6.45553C3.47337 53.7069 1.05273 51.3439 1.05273 48.4268V6.32014C1.05273 3.4044 3.47337 1.0332 6.45553 1.0332H183.032C186.017 1.0332 188.428 3.4044 188.428 6.32014L188.43 48.4268Z" fill="white"/>
<path d="M42.2866 27.074C42.2458 22.6634 45.9906 20.5176 46.1618 20.4177C44.041 17.4029 40.7538 16.991 39.5987 16.9582C36.8379 16.6749 34.1599 18.5689 32.7535 18.5689C31.319 18.5689 29.1533 16.9856 26.8192 17.0321C23.8155 17.0772 21.0056 18.7728 19.4645 21.4058C16.284 26.7743 18.656 34.6636 21.7032 39.0031C23.2275 41.1283 25.0086 43.5013 27.3399 43.4178C29.6207 43.3261 30.4727 42 33.2251 42C35.9522 42 36.7523 43.4178 39.1299 43.3644C41.5777 43.3261 43.1189 41.2296 44.5898 39.0852C46.3513 36.6493 47.0587 34.2503 47.0868 34.1272C47.0292 34.108 42.3329 32.3605 42.2866 27.074Z" fill="black"/>
<path d="M37.7951 14.1035C39.0218 12.6078 39.8612 10.5729 39.6282 8.50781C37.8527 8.58445 35.6322 9.70523 34.3536 11.1681C33.2223 12.4573 32.2117 14.5702 32.4728 16.5572C34.4673 16.7023 36.5151 15.576 37.7951 14.1035Z" fill="black"/>
<path d="M75.2945 36.4784H72.107L70.361 31.129H64.2919L62.6287 36.4784H59.5254L65.5383 18.2666H69.2521L75.2945 36.4784ZM69.8346 28.8847L68.2556 24.1292C68.0886 23.6434 67.7756 22.4993 67.3138 20.6984H67.2577C67.0738 21.473 66.7776 22.617 66.3706 24.1292L64.8197 28.8847H69.8346V28.8847Z" fill="black"/>
<path d="M90.7575 29.7512C90.7575 31.9846 90.1385 33.7499 88.9006 35.0459C87.7918 36.1995 86.4149 36.7757 84.7713 36.7757C82.9972 36.7757 81.7227 36.1544 80.9465 34.9118H80.8904V41.8295H77.898V27.6698C77.898 26.2657 77.8601 24.8247 77.7871 23.3467H80.4188L80.5858 25.4282H80.642C81.6399 23.8599 83.1544 23.0771 85.1867 23.0771C86.7756 23.0771 88.102 23.6889 89.1631 24.9137C90.227 26.1398 90.7575 27.7519 90.7575 29.7512ZM87.709 29.858C87.709 28.5798 87.4142 27.5261 86.8219 26.6968C86.1749 25.8319 85.306 25.3995 84.2169 25.3995C83.4786 25.3995 82.8077 25.6403 82.2084 26.1152C81.6076 26.5941 81.2146 27.2195 81.0308 27.9941C80.9381 28.3554 80.8918 28.651 80.8918 28.8836V31.0732C80.8918 32.0284 81.1922 32.8344 81.7929 33.4927C82.3936 34.1509 83.174 34.4793 84.1341 34.4793C85.2611 34.4793 86.1384 34.0551 86.7658 33.2094C87.3946 32.3623 87.709 31.2456 87.709 29.858Z" fill="black"/>
<path d="M106.249 29.7512C106.249 31.9846 105.63 33.7499 104.391 35.0459C103.284 36.1995 101.907 36.7757 100.263 36.7757C98.4889 36.7757 97.2145 36.1544 96.4397 34.9118H96.3836V41.8295H93.3912V27.6698C93.3912 26.2657 93.3533 24.8247 93.2803 23.3467H95.912L96.079 25.4282H96.1351C97.1317 23.8599 98.6461 23.0771 100.68 23.0771C102.267 23.0771 103.594 23.6889 104.658 24.9137C105.717 26.1398 106.249 27.7519 106.249 29.7512ZM103.201 29.858C103.201 28.5798 102.905 27.5261 102.312 26.6968C101.665 25.8319 100.799 25.3995 99.7086 25.3995C98.969 25.3995 98.2994 25.6403 97.6987 26.1152C97.098 26.5941 96.7064 27.2195 96.5225 27.9941C96.4313 28.3554 96.3836 28.651 96.3836 28.8836V31.0732C96.3836 32.0284 96.6839 32.8344 97.2819 33.4927C97.8826 34.1495 98.663 34.4793 99.6258 34.4793C100.753 34.4793 101.63 34.0551 102.258 33.2094C102.886 32.3623 103.201 31.2456 103.201 29.858Z" fill="black"/>
<path d="M123.569 31.3714C123.569 32.9206 123.018 34.1809 121.91 35.1539C120.693 36.2172 118.999 36.7482 116.822 36.7482C114.812 36.7482 113.201 36.3705 111.981 35.6137L112.675 33.1819C113.989 33.9565 115.43 34.3452 117.001 34.3452C118.128 34.3452 119.005 34.0961 119.635 33.6007C120.263 33.1053 120.576 32.4402 120.576 31.6109C120.576 30.8719 120.317 30.2493 119.799 29.7443C119.284 29.2393 118.424 28.77 117.222 28.3361C113.952 27.1469 112.318 25.4049 112.318 23.114C112.318 21.6169 112.891 20.3894 114.038 19.4342C115.18 18.4776 116.704 18 118.611 18C120.31 18 121.722 18.2887 122.849 18.8649L122.101 21.2433C121.049 20.685 119.858 20.4058 118.526 20.4058C117.474 20.4058 116.651 20.659 116.062 21.1626C115.563 21.6128 115.314 22.1616 115.314 22.8116C115.314 23.5314 115.598 24.1267 116.171 24.5947C116.669 25.0272 117.575 25.4952 118.888 26.0001C120.496 26.631 121.676 27.3686 122.435 28.2144C123.192 29.0573 123.569 30.1124 123.569 31.3714Z" fill="black"/>
<path d="M133.462 25.5358H130.164V31.9116C130.164 33.5332 130.745 34.3434 131.91 34.3434C132.445 34.3434 132.888 34.2982 133.239 34.2079L133.322 36.4235C132.732 36.6383 131.956 36.7464 130.995 36.7464C129.813 36.7464 128.889 36.3947 128.223 35.6927C127.559 34.9893 127.225 33.8097 127.225 32.1524V25.5331H125.26V23.3435H127.225V20.9391L130.164 20.0742V23.3435H133.462V25.5358Z" fill="black"/>
<path d="M148.345 29.8042C148.345 31.8227 147.752 33.48 146.57 34.7759C145.331 36.1102 143.686 36.7753 141.635 36.7753C139.659 36.7753 138.086 36.1362 136.912 34.858C135.739 33.5799 135.152 31.9664 135.152 30.0218C135.152 27.9869 135.756 26.3201 136.967 25.0241C138.176 23.7268 139.807 23.0781 141.857 23.0781C143.833 23.0781 145.424 23.7172 146.624 24.9967C147.772 26.238 148.345 27.8404 148.345 29.8042ZM145.24 29.8986C145.24 28.6875 144.975 27.6489 144.437 26.7826C143.81 25.7344 142.913 25.2116 141.751 25.2116C140.548 25.2116 139.634 25.7357 139.007 26.7826C138.469 27.6502 138.204 28.7053 138.204 29.9534C138.204 31.1645 138.469 32.2032 139.007 33.068C139.654 34.1163 140.557 34.6391 141.724 34.6391C142.866 34.6391 143.763 34.1054 144.41 33.0407C144.962 32.158 145.24 31.1084 145.24 29.8986Z" fill="black"/>
<path d="M158.071 25.9126C157.775 25.8593 157.459 25.8319 157.128 25.8319C156.075 25.8319 155.261 26.2192 154.689 26.9951C154.19 27.6794 153.94 28.5442 153.94 29.5884V36.4787H150.949L150.978 27.4823C150.978 25.9688 150.94 24.5907 150.865 23.3481H153.472L153.581 25.8606H153.664C153.98 24.9971 154.478 24.3019 155.16 23.7805C155.827 23.3112 156.547 23.0771 157.323 23.0771C157.6 23.0771 157.849 23.0963 158.071 23.1305V25.9126Z" fill="black"/>
<path d="M171.455 29.2916C171.455 29.8144 171.42 30.2551 171.346 30.615H162.368C162.403 31.9123 162.837 32.9044 163.671 33.5887C164.427 34.2004 165.406 34.5069 166.607 34.5069C167.936 34.5069 169.149 34.3003 170.24 33.8856L170.708 35.911C169.434 36.4529 167.929 36.7225 166.193 36.7225C164.105 36.7225 162.465 36.1231 161.272 34.9257C160.082 33.7283 159.485 32.1203 159.485 30.1032C159.485 28.123 160.04 26.4739 161.15 25.1588C162.312 23.7548 163.883 23.0527 165.859 23.0527C167.8 23.0527 169.27 23.7548 170.268 25.1588C171.058 26.2741 171.455 27.6536 171.455 29.2916ZM168.602 28.5349C168.621 27.67 168.426 26.9228 168.02 26.2919C167.503 25.4804 166.707 25.0753 165.636 25.0753C164.658 25.0753 163.862 25.4708 163.254 26.2646C162.756 26.8954 162.46 27.6522 162.368 28.5335H168.602V28.5349Z" fill="black"/>
</svg>
