<svg width="190" height="55" viewBox="0 0 190 55" fill="none" xmlns="http://www.w3.org/2000/svg">
<path d="M182.464 54.7393H7.01786C3.15979 54.7393 0 51.6585 0 47.8968V6.84238C0 3.08077 3.15979 -2.67029e-05 7.01786 -2.67029e-05H182.464C186.322 -2.67029e-05 189.482 3.08077 189.482 6.84238V47.8968C189.482 51.6585 186.322 54.7393 182.464 54.7393Z" fill="white"/>
<path d="M14.646 10.3446C14.2337 10.7654 13.9951 11.4206 13.9951 12.269V42.533C13.9951 43.3815 14.2337 44.0366 14.646 44.4574L14.7478 44.5498L32.1415 27.5977V27.1974L14.7478 10.2454L14.646 10.3446Z" fill="url(#paint0_linear_2357_11793)"/>
<path d="M37.9331 33.252L32.1416 27.5984V27.1981L37.9401 21.5446L38.0699 21.6181L44.9369 25.4277C46.8966 26.5088 46.8966 28.2878 44.9369 29.3757L38.0699 33.1784L37.9331 33.252V33.252Z" fill="url(#paint1_linear_2357_11793)"/>
<path d="M38.0703 33.1779L32.142 27.3978L14.6465 44.4576C15.2974 45.1248 16.3588 45.2052 17.5659 44.538L38.0703 33.1779" fill="url(#paint2_linear_2357_11793)"/>
<path d="M38.0703 21.6173L17.5659 10.2572C16.3588 9.59693 15.2974 9.67733 14.6465 10.3445L32.142 27.3975L38.0703 21.6173Z" fill="url(#paint3_linear_2357_11793)"/>
<path d="M95.6323 24.1335C92.3357 24.1335 89.6426 26.5796 89.6426 29.9546C89.6426 33.3023 92.3357 35.7741 95.6323 35.7741C98.9359 35.7741 101.629 33.3023 101.629 29.9546C101.629 26.5796 98.9359 24.1335 95.6323 24.1335ZM95.6323 33.4819C93.8234 33.4819 92.2672 32.0262 92.2672 29.9546C92.2672 27.8557 93.8234 26.4257 95.6323 26.4257C97.4411 26.4257 99.0044 27.8557 99.0044 29.9546C99.0044 32.0262 97.4411 33.4819 95.6323 33.4819V33.4819ZM82.5633 24.1335C79.2596 24.1335 76.5736 26.5796 76.5736 29.9546C76.5736 33.3023 79.2596 35.7741 82.5633 35.7741C85.8652 35.7741 88.553 33.3023 88.553 29.9546C88.553 26.5796 85.8652 24.1335 82.5633 24.1335ZM82.5633 33.4819C80.7527 33.4819 79.1912 32.0262 79.1912 29.9546C79.1912 27.8557 80.7527 26.4257 82.5633 26.4257C84.3721 26.4257 85.9284 27.8557 85.9284 29.9546C85.9284 32.0262 84.3721 33.4819 82.5633 33.4819ZM67.0117 25.9176V28.3912H73.0699C72.8927 29.7733 72.419 30.7894 71.6926 31.4976C70.8084 32.3529 69.4311 33.3023 67.0117 33.3023C63.2835 33.3023 60.3641 30.3686 60.3641 26.7336C60.3641 23.0985 63.2835 20.1649 67.0117 20.1649C69.0276 20.1649 70.4943 20.9329 71.5768 21.9285L73.3646 20.1854C71.8505 18.7759 69.8364 17.693 67.0117 17.693C61.8992 17.693 57.6025 21.7489 57.6025 26.7336C57.6025 31.7183 61.8992 35.7741 67.0117 35.7741C69.775 35.7741 71.8505 34.8914 73.4822 33.2356C75.1542 31.6054 75.6753 29.3132 75.6753 27.4623C75.6753 26.8875 75.6261 26.359 75.5384 25.9176H67.0117ZM130.604 27.8352C130.111 26.5334 128.59 24.1335 125.492 24.1335C122.421 24.1335 119.865 26.4924 119.865 29.9546C119.865 33.215 122.395 35.7741 125.786 35.7741C128.528 35.7741 130.111 34.1439 130.762 33.1945L128.727 31.8722C128.048 32.8404 127.123 33.4819 125.786 33.4819C124.458 33.4819 123.505 32.8883 122.895 31.7183L130.879 28.4972L130.604 27.8352V27.8352ZM122.463 29.7733C122.395 27.529 124.251 26.3795 125.581 26.3795C126.623 26.3795 127.507 26.8875 127.802 27.6145L122.463 29.7733V29.7733ZM115.974 35.42H118.598V18.314H115.974V35.42ZM111.675 25.4301H111.587C110.998 24.7493 109.873 24.1335 108.449 24.1335C105.459 24.1335 102.726 26.6925 102.726 29.9735C102.726 33.2356 105.459 35.7741 108.449 35.7741C109.873 35.7741 110.998 35.1532 111.587 34.4518H111.675V35.2866C111.675 37.5121 110.456 38.7078 108.489 38.7078C106.885 38.7078 105.891 37.5788 105.48 36.6294L103.198 37.5583C103.855 39.1012 105.598 41 108.489 41C111.566 41 114.163 39.2347 114.163 34.9393V24.4876H111.675V25.4301V25.4301ZM108.673 33.4819C106.864 33.4819 105.35 32.0057 105.35 29.9735C105.35 27.9224 106.864 26.4257 108.673 26.4257C110.456 26.4257 111.861 27.9224 111.861 29.9735C111.861 32.0057 110.456 33.4819 108.673 33.4819V33.4819ZM142.892 18.314H136.615V35.42H139.232V28.9385H142.892C145.799 28.9385 148.65 26.8875 148.65 23.6254C148.65 20.365 145.792 18.314 142.892 18.314V18.314ZM142.961 26.5591H139.232V20.6934H142.961C144.915 20.6934 146.031 22.2757 146.031 23.6254C146.031 24.9494 144.915 26.5591 142.961 26.5591ZM159.142 24.101C157.251 24.101 155.284 24.9152 154.475 26.7199L156.798 27.6693C157.298 26.7199 158.218 26.412 159.19 26.412C160.547 26.412 161.925 27.2074 161.946 28.6118V28.7914C161.472 28.5246 160.458 28.1294 159.211 28.1294C156.709 28.1294 154.159 29.4723 154.159 31.9783C154.159 34.2705 156.209 35.7467 158.512 35.7467C160.274 35.7467 161.246 34.9718 161.856 34.0704H161.946V35.3926H164.474V28.8308C164.474 25.7979 162.151 24.101 159.142 24.101ZM158.826 33.4751C157.97 33.4751 156.777 33.0611 156.777 32.0262C156.777 30.7022 158.265 30.1941 159.553 30.1941C160.705 30.1941 161.246 30.4422 161.946 30.7689C161.74 32.3529 160.342 33.4751 158.826 33.4751V33.4751ZM173.685 24.4756L170.676 31.891H170.587L167.476 24.4756H164.653L169.327 34.8384L166.66 40.6049H169.395L176.597 24.4756H173.685V24.4756ZM150.089 35.42H152.714V18.314H150.089V35.42Z" fill="black"/>
<defs>
<linearGradient id="paint0_linear_2357_11793" x1="30.5972" y1="42.8482" x2="7.63812" y2="19.3004" gradientUnits="userSpaceOnUse">
<stop stop-color="#00A0FF"/>
<stop offset="0.0066" stop-color="#00A1FF"/>
<stop offset="0.2601" stop-color="#00BEFF"/>
<stop offset="0.5122" stop-color="#00D2FF"/>
<stop offset="0.7604" stop-color="#00DFFF"/>
<stop offset="1" stop-color="#00E3FF"/>
</linearGradient>
<linearGradient id="paint1_linear_2357_11793" x1="47.4888" y1="27.3964" x2="13.5267" y2="27.3964" gradientUnits="userSpaceOnUse">
<stop stop-color="#FFE000"/>
<stop offset="0.4087" stop-color="#FFBD00"/>
<stop offset="0.7754" stop-color="#FFA500"/>
<stop offset="1" stop-color="#FF9C00"/>
</linearGradient>
<linearGradient id="paint2_linear_2357_11793" x1="34.8467" y1="24.2556" x2="3.71234" y2="-7.67704" gradientUnits="userSpaceOnUse">
<stop stop-color="#FF3A44"/>
<stop offset="1" stop-color="#C31162"/>
</linearGradient>
<linearGradient id="paint3_linear_2357_11793" x1="10.2425" y1="54.526" x2="24.1454" y2="40.2667" gradientUnits="userSpaceOnUse">
<stop stop-color="#32A071"/>
<stop offset="0.0685" stop-color="#2DA771"/>
<stop offset="0.4762" stop-color="#15CF74"/>
<stop offset="0.8009" stop-color="#06E775"/>
<stop offset="1" stop-color="#00F076"/>
</linearGradient>
</defs>
</svg>
