<svg width="232" height="32" viewBox="0 0 232 32" fill="none" xmlns="http://www.w3.org/2000/svg">
<path d="M5.38469e-05 11.0165V20.9708C-0.00308576 21.4881 0.13112 21.9969 0.388965 22.4454C0.64681 22.8938 1.01906 23.2657 1.46768 23.5232L10.0948 28.5004C10.541 28.758 11.0472 28.8937 11.5624 28.8937C12.0777 28.8937 12.5838 28.758 13.03 28.5004L21.6954 23.5232C22.1458 23.2678 22.5195 22.8963 22.7777 22.4474C23.0358 21.9985 23.1689 21.4886 23.163 20.9708V11.0165C23.1675 10.499 23.0339 9.98963 22.7759 9.54098C22.5179 9.09232 22.1449 8.72058 21.6954 8.4641L13.03 3.49969C12.5838 3.24207 12.0777 3.10645 11.5624 3.10645C11.0472 3.10645 10.541 3.24207 10.0948 3.49969L1.46768 8.47687C1.02181 8.73429 0.651498 9.10445 0.393896 9.55022C0.136294 9.99598 0.000469943 10.5017 5.38469e-05 11.0165V11.0165Z" fill="#EFEFB4"/>
<path d="M11.5614 10.4541L6.57146 15.8652C6.51635 15.9276 6.47693 16.0022 6.45648 16.0829C6.43602 16.1636 6.43511 16.2481 6.45383 16.3292C6.47255 16.4103 6.51036 16.4858 6.56411 16.5494C6.61786 16.6129 6.68601 16.6628 6.76289 16.6947H11.5614V10.4541Z" fill="#3CA085"/>
<path d="M11.5614 14.2705L6.57146 19.6943C6.51635 19.7568 6.47693 19.8314 6.45648 19.9121C6.43602 19.9928 6.43511 20.0772 6.45383 20.1583C6.47255 20.2395 6.51036 20.315 6.56411 20.3785C6.61786 20.4421 6.68601 20.4919 6.76289 20.5239H11.5614V14.2705Z" fill="#EE468D"/>
<path d="M11.5635 14.2705L16.5917 19.6943C16.6468 19.7568 16.6862 19.8314 16.7067 19.9121C16.7271 19.9928 16.728 20.0772 16.7093 20.1583C16.6906 20.2395 16.6528 20.315 16.599 20.3785C16.5453 20.4421 16.4771 20.4919 16.4003 20.5239H11.5635V14.2705Z" fill="#C83B77"/>
<path d="M11.5635 10.4541L16.5917 15.8652C16.6468 15.9276 16.6862 16.0022 16.7067 16.0829C16.7271 16.1636 16.728 16.2481 16.7093 16.3292C16.6906 16.4103 16.6528 16.4858 16.599 16.5494C16.5453 16.6129 16.4771 16.6628 16.4003 16.6947H11.5635V10.4541Z" fill="#46BD9C"/>
<path d="M37.5348 19.254V16.0989H41.1773C41.9127 16.0989 42.5283 15.9535 43.0243 15.6628C43.5373 15.3721 43.9221 14.9702 44.1786 14.4572C44.4522 13.9442 44.589 13.3542 44.589 12.6872C44.589 12.0203 44.4522 11.4303 44.1786 10.9173C43.9221 10.4043 43.5373 10.0109 43.0243 9.73731C42.5283 9.44659 41.9127 9.30123 41.1773 9.30123H37.5348V6.14609H40.8695C42.4428 6.14609 43.7767 6.40261 44.8712 6.91564C45.9827 7.42867 46.8292 8.16401 47.4107 9.12167C47.9921 10.0622 48.2828 11.1824 48.2828 12.482V12.8925C48.2828 14.1921 47.9921 15.3208 47.4107 16.2785C46.8292 17.219 45.9827 17.9544 44.8712 18.4845C43.7767 18.9975 42.4428 19.254 40.8695 19.254H37.5348ZM34.4053 25V6.14609H38.0478V25H34.4053ZM57.04 25.4874C55.843 25.4874 54.7912 25.2822 53.8849 24.8717C52.9956 24.4613 52.2517 23.9141 51.6532 23.23C51.0718 22.5289 50.6271 21.7508 50.3193 20.8957C50.0286 20.0407 49.8832 19.1685 49.8832 18.2793V17.7919C49.8832 16.8684 50.0286 15.9792 50.3193 15.1241C50.6271 14.252 51.0718 13.4824 51.6532 12.8155C52.2517 12.1315 52.9871 11.5928 53.8592 11.1995C54.7314 10.789 55.7404 10.5838 56.8861 10.5838C58.391 10.5838 59.6479 10.9173 60.6569 11.5842C61.683 12.2341 62.4525 13.0977 62.9655 14.175C63.4786 15.2353 63.7351 16.3811 63.7351 17.6123V18.8949H51.3967V16.7145H61.5034L60.4004 17.7919C60.4004 16.9027 60.2721 16.1417 60.0156 15.5089C59.7591 14.8762 59.3658 14.3888 58.8356 14.0468C58.3226 13.7048 57.6728 13.5337 56.8861 13.5337C56.0995 13.5337 55.4325 13.7133 54.8853 14.0724C54.3381 14.4315 53.9191 14.9531 53.6284 15.6372C53.3548 16.3041 53.2179 17.1079 53.2179 18.0484C53.2179 18.9206 53.3548 19.6987 53.6284 20.3827C53.902 21.0497 54.321 21.5798 54.8853 21.9731C55.4496 22.3493 56.1679 22.5374 57.04 22.5374C57.9122 22.5374 58.6219 22.3664 59.1691 22.0244C59.7163 21.6653 60.0669 21.2292 60.2208 20.7162H63.5042C63.299 21.6738 62.9057 22.5118 62.3243 23.23C61.7428 23.9483 60.9989 24.5041 60.0926 24.8974C59.2033 25.2907 58.1858 25.4874 57.04 25.4874ZM66.7137 25V11.0712H69.5354V16.9711H69.4584C69.4584 14.9702 69.8859 13.4568 70.741 12.4307C71.596 11.4047 72.853 10.8916 74.5118 10.8916H75.0248V13.9955H74.05C72.853 13.9955 71.921 14.3204 71.254 14.9702C70.6042 15.603 70.2793 16.5264 70.2793 17.7406V25H66.7137ZM77.4102 25V11.0712H80.2319V16.9711H80.1549C80.1549 14.9702 80.5824 13.4568 81.4375 12.4307C82.2925 11.4047 83.5495 10.8916 85.2083 10.8916H85.7213V13.9955H84.7465C83.5495 13.9955 82.6175 14.3204 81.9505 14.9702C81.3007 15.603 80.9758 16.5264 80.9758 17.7406V25H77.4102ZM88.1221 30.4894V27.4369H90.7386C91.2345 27.4369 91.6449 27.3685 91.9699 27.2317C92.3119 27.112 92.5941 26.9068 92.8164 26.616C93.0387 26.3424 93.2097 25.9577 93.3294 25.4617L97.0745 11.0712H100.486L96.3563 26.2313C96.0827 27.2744 95.6979 28.1038 95.202 28.7195C94.706 29.3522 94.0647 29.8054 93.2781 30.079C92.5085 30.3526 91.5509 30.4894 90.4051 30.4894H88.1221ZM92.4572 24.6922V21.8705H95.4328V24.6922H92.4572ZM91.2516 24.6922L86.7369 11.0712H90.3282L94.612 24.6922H91.2516Z" fill="white"/>
<path d="M105.076 23.5V6.6159H107.832V23.5H105.076ZM115.367 23.5L110.038 16.1261H113.162L118.652 23.5H115.367ZM106.937 17.6652V15.3451H111.301C111.96 15.3451 112.526 15.2149 113.001 14.9546C113.476 14.6789 113.836 14.3037 114.081 13.829C114.341 13.3542 114.471 12.8029 114.471 12.175C114.471 11.5624 114.341 11.0188 114.081 10.544C113.836 10.0693 113.476 9.69409 113.001 9.41843C112.526 9.14277 111.96 9.00494 111.301 9.00494H106.937V6.6159H110.934C112.22 6.6159 113.338 6.81499 114.288 7.21316C115.237 7.59602 115.972 8.17797 116.493 8.959C117.013 9.74004 117.274 10.7431 117.274 11.9683V12.3358C117.274 13.561 117.006 14.5641 116.47 15.3451C115.949 16.1261 115.214 16.7081 114.265 17.0909C113.33 17.4738 112.22 17.6652 110.934 17.6652H106.937ZM126.283 23.9135C125.211 23.9135 124.277 23.7297 123.481 23.3622C122.684 22.9946 122.033 22.5122 121.528 21.915C121.023 21.3024 120.64 20.6209 120.379 19.8705C120.134 19.1048 120.012 18.3237 120.012 17.5274V17.0909C120.012 16.2793 120.134 15.4982 120.379 14.7478C120.64 13.9821 121.023 13.3006 121.528 12.7034C122.033 12.0908 122.669 11.6084 123.435 11.2562C124.216 10.8886 125.119 10.7048 126.145 10.7048C127.478 10.7048 128.588 10.9958 129.476 11.5778C130.364 12.1597 131.031 12.9178 131.475 13.8519C131.919 14.7708 132.141 15.7662 132.141 16.8382V17.9179H121.16V16.1032H130.326L129.591 17.022C129.591 16.195 129.461 15.4829 129.201 14.8857C128.94 14.2731 128.557 13.806 128.052 13.4844C127.547 13.1475 126.911 12.979 126.145 12.979C125.349 12.979 124.683 13.1628 124.147 13.5303C123.611 13.8979 123.213 14.4033 122.952 15.0465C122.692 15.6897 122.562 16.4477 122.562 17.3206C122.562 18.1476 122.692 18.8904 122.952 19.5489C123.213 20.1921 123.618 20.7051 124.17 21.088C124.721 21.4555 125.426 21.6393 126.283 21.6393C127.141 21.6393 127.845 21.4555 128.397 21.088C128.948 20.7051 129.285 20.261 129.407 19.7556H131.911C131.743 20.5979 131.398 21.333 130.877 21.9609C130.372 22.5888 129.729 23.0712 128.948 23.4081C128.167 23.745 127.279 23.9135 126.283 23.9135ZM142.506 23.5V19.8016H142.069V15.6208C142.069 14.855 141.87 14.2731 141.472 13.8749C141.074 13.4767 140.484 13.2777 139.703 13.2777C139.275 13.2777 138.8 13.2853 138.279 13.3006C137.758 13.3159 137.245 13.3389 136.74 13.3695C136.25 13.3849 135.814 13.4078 135.431 13.4385V11.1183C135.768 11.0877 136.135 11.0647 136.533 11.0494C136.947 11.0188 137.368 10.9958 137.797 10.9805C138.241 10.9652 138.662 10.9575 139.06 10.9575C140.316 10.9575 141.357 11.1183 142.184 11.4399C143.011 11.7615 143.624 12.2746 144.022 12.979C144.436 13.6682 144.642 14.5947 144.642 15.7586V23.5H142.506ZM138.486 23.8216C137.582 23.8216 136.794 23.6685 136.12 23.3622C135.446 23.0406 134.925 22.5811 134.558 21.9839C134.19 21.3713 134.006 20.6439 134.006 19.8016C134.006 18.9133 134.213 18.1783 134.627 17.5963C135.055 17.0144 135.66 16.5779 136.441 16.2869C137.222 15.996 138.157 15.8505 139.244 15.8505H142.345V17.6193H139.175C138.363 17.6193 137.743 17.8184 137.314 18.2165C136.886 18.5994 136.671 19.1048 136.671 19.7327C136.671 20.3606 136.886 20.8659 137.314 21.2488C137.743 21.6163 138.363 21.8001 139.175 21.8001C139.65 21.8001 140.102 21.7159 140.53 21.5474C140.959 21.3636 141.311 21.065 141.587 20.6515C141.878 20.238 142.039 19.6561 142.069 18.9057L142.759 19.8016C142.682 20.6745 142.468 21.4096 142.115 22.0068C141.778 22.5888 141.304 23.0406 140.691 23.3622C140.094 23.6685 139.359 23.8216 138.486 23.8216ZM148.526 23.5V6.73076H151.236V23.5H148.526ZM146.895 8.7982V6.73076H151.236V8.7982H146.895ZM160.553 23.5V6.73076H163.287V23.5H160.553ZM162.827 23.5V21.111H170.684V23.5H162.827ZM162.827 16.1721V13.783H170.04V16.1721H162.827ZM162.827 9.1198V6.73076H170.477V9.1198H162.827ZM178.055 23.8675C176.386 23.8675 175.084 23.5153 174.15 22.8109C173.231 22.1064 172.749 21.1339 172.703 19.8935H175.183C175.214 20.3529 175.451 20.774 175.896 21.1569C176.34 21.5398 177.067 21.7312 178.078 21.7312C178.936 21.7312 179.609 21.5627 180.099 21.2258C180.589 20.8889 180.834 20.4678 180.834 19.9624C180.834 19.5029 180.651 19.1431 180.283 18.8827C179.931 18.6071 179.326 18.4233 178.468 18.3314L177.251 18.2165C175.98 18.0787 174.969 17.7035 174.219 17.0909C173.484 16.4784 173.116 15.6514 173.116 14.61C173.116 13.783 173.323 13.0862 173.736 12.5196C174.15 11.953 174.716 11.5165 175.436 11.2102C176.171 10.9039 177.014 10.7508 177.963 10.7508C179.433 10.7508 180.62 11.08 181.524 11.7386C182.427 12.3818 182.894 13.3313 182.925 14.587H180.467C180.436 14.1123 180.214 13.7141 179.801 13.3925C179.387 13.0709 178.775 12.9101 177.963 12.9101C177.197 12.9101 176.608 13.0633 176.194 13.3695C175.796 13.6758 175.597 14.0663 175.597 14.5411C175.597 14.9699 175.75 15.3068 176.056 15.5518C176.363 15.7969 176.86 15.9577 177.55 16.0342L178.767 16.1491C180.161 16.3022 181.263 16.6928 182.075 17.3206C182.902 17.9332 183.315 18.7908 183.315 19.8935C183.315 20.6898 183.093 21.3866 182.649 21.9839C182.205 22.5811 181.585 23.0482 180.789 23.3851C180.008 23.7067 179.096 23.8675 178.055 23.8675ZM191.332 23.6378C190.306 23.6378 189.44 23.5 188.736 23.2243C188.032 22.9487 187.496 22.4739 187.128 21.8001C186.776 21.1263 186.6 20.2151 186.6 19.0665V7.51179H189.149V19.2962C189.149 19.9394 189.318 20.4371 189.655 20.7894C190.007 21.1263 190.497 21.2947 191.125 21.2947H193.192V23.6378H191.332ZM184.555 13.1169V11.1183H193.192V13.1169H184.555ZM203.524 23.5V19.8016H203.088V15.6208C203.088 14.855 202.889 14.2731 202.49 13.8749C202.092 13.4767 201.503 13.2777 200.722 13.2777C200.293 13.2777 199.818 13.2853 199.297 13.3006C198.777 13.3159 198.264 13.3389 197.758 13.3695C197.268 13.3849 196.832 13.4078 196.449 13.4385V11.1183C196.786 11.0877 197.153 11.0647 197.552 11.0494C197.965 11.0188 198.386 10.9958 198.815 10.9805C199.259 10.9652 199.68 10.9575 200.078 10.9575C201.334 10.9575 202.376 11.1183 203.203 11.4399C204.029 11.7615 204.642 12.2746 205.04 12.979C205.454 13.6682 205.66 14.5947 205.66 15.7586V23.5H203.524ZM199.504 23.8216C198.601 23.8216 197.812 23.6685 197.138 23.3622C196.464 23.0406 195.943 22.5811 195.576 21.9839C195.208 21.3713 195.025 20.6439 195.025 19.8016C195.025 18.9133 195.231 18.1783 195.645 17.5963C196.074 17.0144 196.679 16.5779 197.46 16.2869C198.241 15.996 199.175 15.8505 200.262 15.8505H203.363V17.6193H200.193C199.382 17.6193 198.761 17.8184 198.333 18.2165C197.904 18.5994 197.689 19.1048 197.689 19.7327C197.689 20.3606 197.904 20.8659 198.333 21.2488C198.761 21.6163 199.382 21.8001 200.193 21.8001C200.668 21.8001 201.12 21.7159 201.549 21.5474C201.977 21.3636 202.33 21.065 202.605 20.6515C202.896 20.238 203.057 19.6561 203.088 18.9057L203.777 19.8016C203.7 20.6745 203.486 21.4096 203.134 22.0068C202.797 22.5888 202.322 23.0406 201.709 23.3622C201.112 23.6685 200.377 23.8216 199.504 23.8216ZM214.483 23.6378C213.457 23.6378 212.591 23.5 211.887 23.2243C211.183 22.9487 210.647 22.4739 210.279 21.8001C209.927 21.1263 209.751 20.2151 209.751 19.0665V7.51179H212.301V19.2962C212.301 19.9394 212.469 20.4371 212.806 20.7894C213.158 21.1263 213.648 21.2947 214.276 21.2947H216.343V23.6378H214.483ZM207.706 13.1169V11.1183H216.343V13.1169H207.706ZM224.585 23.9135C223.513 23.9135 222.579 23.7297 221.783 23.3622C220.986 22.9946 220.336 22.5122 219.83 21.915C219.325 21.3024 218.942 20.6209 218.682 19.8705C218.437 19.1048 218.314 18.3237 218.314 17.5274V17.0909C218.314 16.2793 218.437 15.4982 218.682 14.7478C218.942 13.9821 219.325 13.3006 219.83 12.7034C220.336 12.0908 220.971 11.6084 221.737 11.2562C222.518 10.8886 223.421 10.7048 224.447 10.7048C225.78 10.7048 226.89 10.9958 227.778 11.5778C228.667 12.1597 229.333 12.9178 229.777 13.8519C230.221 14.7708 230.443 15.7662 230.443 16.8382V17.9179H219.463V16.1032H228.628L227.893 17.022C227.893 16.195 227.763 15.4829 227.503 14.8857C227.242 14.2731 226.859 13.806 226.354 13.4844C225.849 13.1475 225.213 12.979 224.447 12.979C223.651 12.979 222.985 13.1628 222.449 13.5303C221.913 13.8979 221.515 14.4033 221.254 15.0465C220.994 15.6897 220.864 16.4477 220.864 17.3206C220.864 18.1476 220.994 18.8904 221.254 19.5489C221.515 20.1921 221.921 20.7051 222.472 21.088C223.023 21.4555 223.728 21.6393 224.585 21.6393C225.443 21.6393 226.147 21.4555 226.699 21.088C227.25 20.7051 227.587 20.261 227.709 19.7556H230.213C230.045 20.5979 229.7 21.333 229.18 21.9609C228.674 22.5888 228.031 23.0712 227.25 23.4081C226.469 23.745 225.581 23.9135 224.585 23.9135Z" fill="#C27DE2"/>
</svg>
