<svg width="195" height="32" viewBox="0 0 195 32" fill="none" xmlns="http://www.w3.org/2000/svg">
<path d="M0.190484 11.0165V20.9708C0.187344 21.4881 0.32155 21.9969 0.579395 22.4454C0.83724 22.8938 1.20948 23.2657 1.65811 23.5232L10.2852 28.5004C10.7314 28.758 11.2376 28.8937 11.7528 28.8937C12.2681 28.8937 12.7742 28.758 13.2205 28.5004L21.8858 23.5232C22.3363 23.2678 22.71 22.8963 22.9681 22.4474C23.2262 21.9985 23.3593 21.4886 23.3535 20.9708V11.0165C23.3579 10.499 23.2243 9.98963 22.9663 9.54098C22.7083 9.09232 22.3354 8.72058 21.8858 8.4641L13.2205 3.49969C12.7742 3.24207 12.2681 3.10645 11.7528 3.10645C11.2376 3.10645 10.7314 3.24207 10.2852 3.49969L1.65811 8.47687C1.21224 8.73429 0.841927 9.10445 0.584326 9.55022C0.326724 9.99598 0.1909 10.5017 0.190484 11.0165V11.0165Z" fill="#EFEFB4"/>
<path d="M11.7538 10.4541L6.76384 15.8652C6.70874 15.9276 6.66932 16.0022 6.64886 16.0829C6.6284 16.1636 6.62749 16.2481 6.64621 16.3292C6.66493 16.4103 6.70274 16.4858 6.75649 16.5494C6.81025 16.6129 6.87839 16.6628 6.95527 16.6947H11.7538V10.4541Z" fill="#3CA085"/>
<path d="M11.7538 14.2705L6.76384 19.6943C6.70874 19.7568 6.66932 19.8314 6.64886 19.9121C6.6284 19.9928 6.62749 20.0772 6.64621 20.1583C6.66493 20.2395 6.70274 20.315 6.75649 20.3785C6.81025 20.4421 6.87839 20.4919 6.95527 20.5239H11.7538V14.2705Z" fill="#EE468D"/>
<path d="M11.752 14.2705L16.7802 19.6943C16.8353 19.7568 16.8747 19.8314 16.8952 19.9121C16.9156 19.9928 16.9165 20.0772 16.8978 20.1583C16.8791 20.2395 16.8413 20.315 16.7875 20.3785C16.7338 20.4421 16.6656 20.4919 16.5887 20.5239H11.752V14.2705Z" fill="#C83B77"/>
<path d="M11.752 10.4541L16.7802 15.8652C16.8353 15.9276 16.8747 16.0022 16.8952 16.0829C16.9156 16.1636 16.9165 16.2481 16.8978 16.3292C16.8791 16.4103 16.8413 16.4858 16.7875 16.5494C16.7338 16.6129 16.6656 16.6628 16.5887 16.6947H11.752V10.4541Z" fill="#46BD9C"/>
<path d="M37.7252 19.254V16.0989H41.3678C42.1031 16.0989 42.7188 15.9535 43.2147 15.6628C43.7277 15.3721 44.1125 14.9702 44.369 14.4572C44.6426 13.9442 44.7794 13.3542 44.7794 12.6872C44.7794 12.0203 44.6426 11.4303 44.369 10.9173C44.1125 10.4043 43.7277 10.0109 43.2147 9.73731C42.7188 9.44659 42.1031 9.30123 41.3678 9.30123H37.7252V6.14609H41.0599C42.6332 6.14609 43.9671 6.40261 45.0616 6.91564C46.1732 7.42867 47.0197 8.16401 47.6011 9.12167C48.1825 10.0622 48.4733 11.1824 48.4733 12.482V12.8925C48.4733 14.1921 48.1825 15.3208 47.6011 16.2785C47.0197 17.219 46.1732 17.9544 45.0616 18.4845C43.9671 18.9975 42.6332 19.254 41.0599 19.254H37.7252ZM34.5958 25V6.14609H38.2383V25H34.5958ZM57.2305 25.4874C56.0334 25.4874 54.9817 25.2822 54.0753 24.8717C53.1861 24.4613 52.4422 23.9141 51.8436 23.23C51.2622 22.5289 50.8176 21.7508 50.5098 20.8957C50.219 20.0407 50.0737 19.1685 50.0737 18.2793V17.7919C50.0737 16.8684 50.219 15.9792 50.5098 15.1241C50.8176 14.252 51.2622 13.4824 51.8436 12.8155C52.4422 12.1315 53.1775 11.5928 54.0497 11.1995C54.9218 10.789 55.9308 10.5838 57.0766 10.5838C58.5814 10.5838 59.8384 10.9173 60.8473 11.5842C61.8734 12.2341 62.6429 13.0977 63.156 14.175C63.669 15.2353 63.9255 16.3811 63.9255 17.6123V18.8949H51.5871V16.7145H61.6938L60.5908 17.7919C60.5908 16.9027 60.4626 16.1417 60.206 15.5089C59.9495 14.8762 59.5562 14.3888 59.0261 14.0468C58.513 13.7048 57.8632 13.5337 57.0766 13.5337C56.2899 13.5337 55.623 13.7133 55.0757 14.0724C54.5285 14.4315 54.1095 14.9531 53.8188 15.6372C53.5452 16.3041 53.4084 17.1079 53.4084 18.0484C53.4084 18.9206 53.5452 19.6987 53.8188 20.3827C54.0924 21.0497 54.5114 21.5798 55.0757 21.9731C55.6401 22.3493 56.3583 22.5374 57.2305 22.5374C58.1026 22.5374 58.8123 22.3664 59.3595 22.0244C59.9068 21.6653 60.2573 21.2292 60.4113 20.7162H63.6947C63.4894 21.6738 63.0961 22.5118 62.5147 23.23C61.9333 23.9483 61.1894 24.5041 60.283 24.8974C59.3937 25.2907 58.3762 25.4874 57.2305 25.4874ZM66.9041 25V11.0712H69.7258V16.9711H69.6488C69.6488 14.9702 70.0764 13.4568 70.9314 12.4307C71.7865 11.4047 73.0434 10.8916 74.7022 10.8916H75.2152V13.9955H74.2405C73.0434 13.9955 72.1114 14.3204 71.4444 14.9702C70.7946 15.603 70.4697 16.5264 70.4697 17.7406V25H66.9041ZM77.6006 25V11.0712H80.4223V16.9711H80.3453C80.3453 14.9702 80.7729 13.4568 81.6279 12.4307C82.483 11.4047 83.7399 10.8916 85.3987 10.8916H85.9117V13.9955H84.937C83.7399 13.9955 82.8079 14.3204 82.141 14.9702C81.4911 15.603 81.1662 16.5264 81.1662 17.7406V25H77.6006ZM88.3126 30.4894V27.4369H90.929C91.425 27.4369 91.8354 27.3685 92.1603 27.2317C92.5023 27.112 92.7845 26.9068 93.0068 26.616C93.2291 26.3424 93.4001 25.9577 93.5198 25.4617L97.265 11.0712H100.677L96.5467 26.2313C96.2731 27.2744 95.8883 28.1038 95.3924 28.7195C94.8965 29.3522 94.2552 29.8054 93.4685 30.079C92.699 30.3526 91.7413 30.4894 90.5956 30.4894H88.3126ZM92.6477 24.6922V21.8705H95.6233V24.6922H92.6477ZM91.4421 24.6922L86.9274 11.0712H90.5186L94.8024 24.6922H91.4421Z" fill="white"/>
<path d="M102.17 23.5L108.051 6.73076H112.622L118.687 23.5H115.839L110.532 8.56849L111.658 9.09683H108.878L110.073 8.56849L104.927 23.5H102.17ZM105.984 18.7679L106.857 16.3788H113.886L114.782 18.7679H105.984ZM121.369 23.5V10.4062C121.369 9.0126 121.744 7.98654 122.495 7.32802C123.245 6.65419 124.356 6.31727 125.826 6.31727H127.043V8.4766H125.527C125.006 8.4766 124.608 8.62209 124.333 8.91306C124.057 9.18872 123.919 9.57923 123.919 10.0846V23.5H121.369ZM129.363 23.5V10.544C129.363 9.15043 129.739 8.12437 130.489 7.46585C131.255 6.79202 132.365 6.4551 133.82 6.4551H135.244V8.61443H133.521C133.016 8.61443 132.618 8.75992 132.327 9.05089C132.051 9.32655 131.913 9.71706 131.913 10.2224V23.5H129.363ZM137.84 23.5V11.1183H140.528V23.5H137.84ZM119.738 13.1628V11.1643H134.991V13.1628H119.738ZM136.14 13.1858V11.1183H140.528V13.1858H136.14ZM138.736 9.39546C138.169 9.39546 137.748 9.24998 137.472 8.959C137.212 8.66803 137.082 8.29283 137.082 7.8334C137.082 7.38928 137.212 7.02173 137.472 6.73076C137.748 6.42447 138.169 6.27133 138.736 6.27133C139.287 6.27133 139.693 6.42447 139.953 6.73076C140.229 7.02173 140.367 7.38928 140.367 7.8334C140.367 8.29283 140.229 8.66803 139.953 8.959C139.693 9.24998 139.287 9.39546 138.736 9.39546ZM144.674 23.5V6.73076H147.384V23.5H144.674ZM143.043 8.7982V6.73076H147.384V8.7982H143.043ZM151.93 23.5V11.1183H154.618V23.5H151.93ZM150.115 13.1858V11.1183H154.618V13.1858H150.115ZM152.803 9.39546C152.252 9.39546 151.838 9.24998 151.563 8.959C151.302 8.66803 151.172 8.29283 151.172 7.8334C151.172 7.38928 151.302 7.02173 151.563 6.73076C151.838 6.42447 152.252 6.27133 152.803 6.27133C153.37 6.27133 153.783 6.42447 154.044 6.73076C154.319 7.02173 154.457 7.38928 154.457 7.8334C154.457 8.29283 154.319 8.66803 154.044 8.959C153.783 9.24998 153.37 9.39546 152.803 9.39546ZM166.09 23.5V19.8016H165.653V15.6208C165.653 14.855 165.454 14.2731 165.056 13.8749C164.658 13.4767 164.068 13.2777 163.287 13.2777C162.858 13.2777 162.383 13.2853 161.863 13.3006C161.342 13.3159 160.829 13.3389 160.324 13.3695C159.834 13.3849 159.397 13.4078 159.014 13.4385V11.1183C159.351 11.0877 159.719 11.0647 160.117 11.0494C160.53 11.0188 160.952 10.9958 161.38 10.9805C161.824 10.9652 162.246 10.9575 162.644 10.9575C163.9 10.9575 164.941 11.1183 165.768 11.4399C166.595 11.7615 167.207 12.2746 167.606 12.979C168.019 13.6682 168.226 14.5947 168.226 15.7586V23.5H166.09ZM162.07 23.8216C161.166 23.8216 160.377 23.6685 159.703 23.3622C159.03 23.0406 158.509 22.5811 158.141 21.9839C157.774 21.3713 157.59 20.6439 157.59 19.8016C157.59 18.9133 157.797 18.1783 158.21 17.5963C158.639 17.0144 159.244 16.5779 160.025 16.2869C160.806 15.996 161.74 15.8505 162.828 15.8505H165.929V17.6193H162.759C161.947 17.6193 161.327 17.8184 160.898 18.2165C160.469 18.5994 160.255 19.1048 160.255 19.7327C160.255 20.3606 160.469 20.8659 160.898 21.2488C161.327 21.6163 161.947 21.8001 162.759 21.8001C163.233 21.8001 163.685 21.7159 164.114 21.5474C164.543 21.3636 164.895 21.065 165.171 20.6515C165.462 20.238 165.622 19.6561 165.653 18.9057L166.342 19.8016C166.266 20.6745 166.051 21.4096 165.699 22.0068C165.362 22.5888 164.887 23.0406 164.275 23.3622C163.678 23.6685 162.942 23.8216 162.07 23.8216ZM177.048 23.6378C176.022 23.6378 175.157 23.5 174.452 23.2243C173.748 22.9487 173.212 22.4739 172.844 21.8001C172.492 21.1263 172.316 20.2151 172.316 19.0665V7.51179H174.866V19.2962C174.866 19.9394 175.034 20.4371 175.371 20.7894C175.724 21.1263 176.214 21.2947 176.841 21.2947H178.909V23.6378H177.048ZM170.272 13.1169V11.1183H178.909V13.1169H170.272ZM187.151 23.9135C186.079 23.9135 185.144 23.7297 184.348 23.3622C183.552 22.9946 182.901 22.5122 182.396 21.915C181.89 21.3024 181.507 20.6209 181.247 19.8705C181.002 19.1048 180.879 18.3237 180.879 17.5274V17.0909C180.879 16.2793 181.002 15.4982 181.247 14.7478C181.507 13.9821 181.89 13.3006 182.396 12.7034C182.901 12.0908 183.536 11.6084 184.302 11.2562C185.083 10.8886 185.987 10.7048 187.013 10.7048C188.345 10.7048 189.455 10.9958 190.344 11.5778C191.232 12.1597 191.898 12.9178 192.342 13.8519C192.786 14.7708 193.008 15.7662 193.008 16.8382V17.9179H182.028V16.1032H191.194L190.459 17.022C190.459 16.195 190.328 15.4829 190.068 14.8857C189.808 14.2731 189.425 13.806 188.919 13.4844C188.414 13.1475 187.779 12.979 187.013 12.979C186.217 12.979 185.55 13.1628 185.014 13.5303C184.478 13.8979 184.08 14.4033 183.82 15.0465C183.559 15.6897 183.429 16.4477 183.429 17.3206C183.429 18.1476 183.559 18.8904 183.82 19.5489C184.08 20.1921 184.486 20.7051 185.037 21.088C185.589 21.4555 186.293 21.6393 187.151 21.6393C188.008 21.6393 188.713 21.4555 189.264 21.088C189.815 20.7051 190.152 20.261 190.275 19.7556H192.779C192.61 20.5979 192.266 21.333 191.745 21.9609C191.24 22.5888 190.596 23.0712 189.815 23.4081C189.034 23.745 188.146 23.9135 187.151 23.9135Z" fill="#54EDA3"/>
</svg>
