<svg width="32" height="35" viewBox="0 0 32 35" fill="none" xmlns="http://www.w3.org/2000/svg">
<path d="M0.182689 10.8499V24.134C0.178499 24.8243 0.357597 25.5033 0.701692 26.1017C1.04579 26.7002 1.54255 27.1965 2.14124 27.5402L13.6541 34.1822C14.2496 34.526 14.9251 34.707 15.6127 34.707C16.3003 34.707 16.9757 34.526 17.5712 34.1822L29.1352 27.5402C29.7362 27.1993 30.235 26.7035 30.5794 26.1044C30.9239 25.5054 31.1015 24.825 31.0937 24.134V10.8499C31.0997 10.1593 30.9213 9.47956 30.5771 8.88083C30.2328 8.2821 29.735 7.78602 29.1352 7.44375L17.5712 0.818737C16.9757 0.47494 16.3003 0.293945 15.6127 0.293945C14.9251 0.293945 14.2496 0.47494 13.6541 0.818737L2.14124 7.46078C1.54623 7.80431 1.05204 8.29829 0.708272 8.89316C0.364502 9.48803 0.183244 10.1629 0.182689 10.8499V10.8499Z" fill="#EFEFB4"/>
<path d="M15.6132 10.0996L8.95416 17.3207C8.88062 17.404 8.82801 17.5036 8.80071 17.6113C8.77341 17.719 8.7722 17.8316 8.79718 17.9399C8.82216 18.0482 8.87261 18.1489 8.94435 18.2337C9.01608 18.3186 9.10703 18.3851 9.20962 18.4277H15.6132V10.0996Z" fill="#3CA085"/>
<path d="M15.6132 15.1924L8.95416 22.4305C8.88062 22.5138 8.82801 22.6134 8.80071 22.7211C8.77341 22.8288 8.7722 22.9415 8.79718 23.0497C8.82216 23.158 8.87261 23.2587 8.94435 23.3435C9.01608 23.4284 9.10703 23.4949 9.20962 23.5375H15.6132V15.1924Z" fill="#EE468D"/>
<path d="M15.6123 15.1924L22.3225 22.4305C22.396 22.5138 22.4486 22.6134 22.4759 22.7211C22.5032 22.8288 22.5044 22.9415 22.4794 23.0497C22.4545 23.158 22.404 23.2587 22.3323 23.3435C22.2605 23.4284 22.1696 23.4949 22.067 23.5375H15.6123V15.1924Z" fill="#C83B77"/>
<path d="M15.6123 10.0996L22.3225 17.3207C22.396 17.404 22.4486 17.5036 22.4759 17.6113C22.5032 17.719 22.5044 17.8316 22.4794 17.9399C22.4545 18.0482 22.404 18.1489 22.3323 18.2337C22.2605 18.3186 22.1696 18.3851 22.067 18.4277H15.6123V10.0996Z" fill="#46BD9C"/>
</svg>
