<svg width="214" height="32" viewBox="0 0 214 32" fill="none" xmlns="http://www.w3.org/2000/svg">
<path d="M0.595757 11.0165V20.9708C0.592617 21.4881 0.726823 21.9969 0.984669 22.4454C1.24251 22.8938 1.61476 23.2657 2.06338 23.5232L10.6905 28.5004C11.1367 28.758 11.6429 28.8937 12.1581 28.8937C12.6734 28.8937 13.1795 28.758 13.6257 28.5004L22.2911 23.5232C22.7415 23.2678 23.1152 22.8963 23.3734 22.4474C23.6315 21.9985 23.7646 21.4886 23.7587 20.9708V11.0165C23.7632 10.499 23.6296 9.98963 23.3716 9.54098C23.1136 9.09232 22.7406 8.72058 22.2911 8.4641L13.6257 3.49969C13.1795 3.24207 12.6734 3.10645 12.1581 3.10645C11.6429 3.10645 11.1367 3.24207 10.6905 3.49969L2.06338 8.47687C1.61752 8.73429 1.2472 9.10445 0.989599 9.55022C0.731998 9.99598 0.596173 10.5017 0.595757 11.0165V11.0165Z" fill="#EFEFB4"/>
<path d="M12.1571 10.4541L7.16716 15.8652C7.11206 15.9276 7.07264 16.0022 7.05218 16.0829C7.03172 16.1636 7.03081 16.2481 7.04953 16.3292C7.06825 16.4103 7.10606 16.4858 7.15981 16.5494C7.21357 16.6129 7.28171 16.6628 7.35859 16.6947H12.1571V10.4541Z" fill="#3CA085"/>
<path d="M12.1571 14.2705L7.16716 19.6943C7.11206 19.7568 7.07264 19.8314 7.05218 19.9121C7.03172 19.9928 7.03081 20.0772 7.04953 20.1583C7.06825 20.2395 7.10606 20.315 7.15981 20.3785C7.21357 20.4421 7.28171 20.4919 7.35859 20.5239H12.1571V14.2705Z" fill="#EE468D"/>
<path d="M12.1592 14.2705L17.1874 19.6943C17.2425 19.7568 17.2819 19.8314 17.3024 19.9121C17.3228 19.9928 17.3238 20.0772 17.305 20.1583C17.2863 20.2395 17.2485 20.315 17.1947 20.3785C17.141 20.4421 17.0728 20.4919 16.996 20.5239H12.1592V14.2705Z" fill="#C83B77"/>
<path d="M12.1592 10.4541L17.1874 15.8652C17.2425 15.9276 17.2819 16.0022 17.3024 16.0829C17.3228 16.1636 17.3238 16.2481 17.305 16.3292C17.2863 16.4103 17.2485 16.4858 17.1947 16.5494C17.141 16.6129 17.0728 16.6628 16.996 16.6947H12.1592V10.4541Z" fill="#46BD9C"/>
<path d="M38.1305 19.254V16.0989H41.773C42.5084 16.0989 43.124 15.9535 43.62 15.6628C44.133 15.3721 44.5178 14.9702 44.7743 14.4572C45.0479 13.9442 45.1847 13.3542 45.1847 12.6872C45.1847 12.0203 45.0479 11.4303 44.7743 10.9173C44.5178 10.4043 44.133 10.0109 43.62 9.73731C43.124 9.44659 42.5084 9.30123 41.773 9.30123H38.1305V6.14609H41.4652C43.0385 6.14609 44.3724 6.40261 45.4669 6.91564C46.5784 7.42867 47.4249 8.16401 48.0064 9.12167C48.5878 10.0622 48.8785 11.1824 48.8785 12.482V12.8925C48.8785 14.1921 48.5878 15.3208 48.0064 16.2785C47.4249 17.219 46.5784 17.9544 45.4669 18.4845C44.3724 18.9975 43.0385 19.254 41.4652 19.254H38.1305ZM35.001 25V6.14609H38.6435V25H35.001ZM57.6357 25.4874C56.4387 25.4874 55.3869 25.2822 54.4806 24.8717C53.5913 24.4613 52.8474 23.9141 52.2489 23.23C51.6675 22.5289 51.2228 21.7508 50.915 20.8957C50.6243 20.0407 50.4789 19.1685 50.4789 18.2793V17.7919C50.4789 16.8684 50.6243 15.9792 50.915 15.1241C51.2228 14.252 51.6675 13.4824 52.2489 12.8155C52.8474 12.1315 53.5828 11.5928 54.4549 11.1995C55.3271 10.789 56.3361 10.5838 57.4818 10.5838C58.9867 10.5838 60.2436 10.9173 61.2526 11.5842C62.2787 12.2341 63.0482 13.0977 63.5613 14.175C64.0743 15.2353 64.3308 16.3811 64.3308 17.6123V18.8949H51.9924V16.7145H62.0991L60.9961 17.7919C60.9961 16.9027 60.8678 16.1417 60.6113 15.5089C60.3548 14.8762 59.9615 14.3888 59.4313 14.0468C58.9183 13.7048 58.2685 13.5337 57.4818 13.5337C56.6952 13.5337 56.0282 13.7133 55.481 14.0724C54.9338 14.4315 54.5148 14.9531 54.2241 15.6372C53.9505 16.3041 53.8137 17.1079 53.8137 18.0484C53.8137 18.9206 53.9505 19.6987 54.2241 20.3827C54.4977 21.0497 54.9167 21.5798 55.481 21.9731C56.0453 22.3493 56.7636 22.5374 57.6357 22.5374C58.5079 22.5374 59.2176 22.3664 59.7648 22.0244C60.3121 21.6653 60.6626 21.2292 60.8165 20.7162H64.0999C63.8947 21.6738 63.5014 22.5118 62.92 23.23C62.3385 23.9483 61.5946 24.5041 60.6883 24.8974C59.799 25.2907 58.7815 25.4874 57.6357 25.4874ZM67.3094 25V11.0712H70.1311V16.9711H70.0541C70.0541 14.9702 70.4816 13.4568 71.3367 12.4307C72.1917 11.4047 73.4487 10.8916 75.1075 10.8916H75.6205V13.9955H74.6457C73.4487 13.9955 72.5167 14.3204 71.8497 14.9702C71.1999 15.603 70.875 16.5264 70.875 17.7406V25H67.3094ZM78.0059 25V11.0712H80.8276V16.9711H80.7506C80.7506 14.9702 81.1781 13.4568 82.0332 12.4307C82.8882 11.4047 84.1452 10.8916 85.804 10.8916H86.317V13.9955H85.3422C84.1452 13.9955 83.2132 14.3204 82.5462 14.9702C81.8964 15.603 81.5715 16.5264 81.5715 17.7406V25H78.0059ZM88.7178 30.4894V27.4369H91.3343C91.8302 27.4369 92.2406 27.3685 92.5656 27.2317C92.9076 27.112 93.1898 26.9068 93.4121 26.616C93.6344 26.3424 93.8054 25.9577 93.9251 25.4617L97.6702 11.0712H101.082L96.952 26.2313C96.6784 27.2744 96.2936 28.1038 95.7977 28.7195C95.3017 29.3522 94.6604 29.8054 93.8738 30.079C93.1043 30.3526 92.1466 30.4894 91.0008 30.4894H88.7178ZM93.0529 24.6922V21.8705H96.0285V24.6922H93.0529ZM91.8473 24.6922L87.3326 11.0712H90.9239L95.2077 24.6922H91.8473Z" fill="white"/>
<path d="M103.803 23.5L109.684 6.73076H114.255L120.32 23.5H117.471L112.165 8.56849L113.291 9.09683H110.511L111.706 8.56849L106.56 23.5H103.803ZM107.617 18.7679L108.49 16.3788H115.519L116.415 18.7679H107.617ZM128.034 23.9135C126.977 23.9135 126.051 23.7374 125.254 23.3851C124.473 23.0176 123.823 22.5275 123.302 21.915C122.797 21.2871 122.414 20.5979 122.153 19.8475C121.908 19.0818 121.786 18.3084 121.786 17.5274V17.1139C121.786 16.3022 121.916 15.5212 122.176 14.7708C122.437 14.0051 122.827 13.3159 123.348 12.7034C123.869 12.0908 124.512 11.6084 125.277 11.2562C126.059 10.8886 126.97 10.7048 128.011 10.7048C129.068 10.7048 130.01 10.9039 130.837 11.3021C131.679 11.7003 132.353 12.2669 132.858 13.002C133.363 13.7218 133.647 14.5641 133.708 15.5289H131.112C131.02 14.8397 130.706 14.2578 130.17 13.783C129.65 13.3083 128.93 13.0709 128.011 13.0709C127.215 13.0709 126.556 13.2547 126.036 13.6222C125.515 13.9898 125.124 14.4951 124.864 15.1384C124.604 15.7662 124.473 16.4937 124.473 17.3206C124.473 18.117 124.596 18.8368 124.841 19.48C125.101 20.1232 125.492 20.6286 126.013 20.9961C126.549 21.3636 127.222 21.5474 128.034 21.5474C128.662 21.5474 129.198 21.4402 129.642 21.2258C130.101 20.9961 130.469 20.6975 130.745 20.3299C131.02 19.9471 131.181 19.5106 131.227 19.0205H133.846C133.8 20.016 133.517 20.8812 132.996 21.6163C132.475 22.3361 131.786 22.9027 130.928 23.3162C130.071 23.7144 129.106 23.9135 128.034 23.9135ZM144.1 23.5V19.8016H143.664V15.6208C143.664 14.855 143.465 14.2731 143.067 13.8749C142.668 13.4767 142.079 13.2777 141.298 13.2777C140.869 13.2777 140.394 13.2853 139.874 13.3006C139.353 13.3159 138.84 13.3389 138.334 13.3695C137.844 13.3849 137.408 13.4078 137.025 13.4385V11.1183C137.362 11.0877 137.73 11.0647 138.128 11.0494C138.541 11.0188 138.962 10.9958 139.391 10.9805C139.835 10.9652 140.256 10.9575 140.655 10.9575C141.91 10.9575 142.952 11.1183 143.779 11.4399C144.606 11.7615 145.218 12.2746 145.616 12.979C146.03 13.6682 146.237 14.5947 146.237 15.7586V23.5H144.1ZM140.08 23.8216C139.177 23.8216 138.388 23.6685 137.714 23.3622C137.04 23.0406 136.52 22.5811 136.152 21.9839C135.785 21.3713 135.601 20.6439 135.601 19.8016C135.601 18.9133 135.808 18.1783 136.221 17.5963C136.65 17.0144 137.255 16.5779 138.036 16.2869C138.817 15.996 139.751 15.8505 140.838 15.8505H143.94V17.6193H140.769C139.958 17.6193 139.338 17.8184 138.909 18.2165C138.48 18.5994 138.266 19.1048 138.266 19.7327C138.266 20.3606 138.48 20.8659 138.909 21.2488C139.338 21.6163 139.958 21.8001 140.769 21.8001C141.244 21.8001 141.696 21.7159 142.125 21.5474C142.554 21.3636 142.906 21.065 143.181 20.6515C143.472 20.238 143.633 19.6561 143.664 18.9057L144.353 19.8016C144.276 20.6745 144.062 21.4096 143.71 22.0068C143.373 22.5888 142.898 23.0406 142.286 23.3622C141.688 23.6685 140.953 23.8216 140.08 23.8216ZM155.128 23.9135C154.24 23.9135 153.428 23.7527 152.693 23.4311C151.973 23.1095 151.338 22.6577 150.786 22.0758C150.25 21.4938 149.837 20.82 149.546 20.0543C149.255 19.2885 149.109 18.4539 149.109 17.5504V17.1139C149.109 16.2257 149.247 15.3987 149.523 14.633C149.814 13.8519 150.22 13.1705 150.74 12.5885C151.261 12.0066 151.881 11.5548 152.601 11.2332C153.336 10.8963 154.148 10.7278 155.036 10.7278C155.986 10.7278 156.835 10.9346 157.586 11.348C158.352 11.7462 158.964 12.3665 159.424 13.2087C159.898 14.0357 160.159 15.0924 160.205 16.3788L159.286 15.1154V6.73076H161.973V23.5H159.837V18.1247H160.434C160.388 19.457 160.113 20.552 159.607 21.4096C159.117 22.2672 158.482 22.9027 157.701 23.3162C156.92 23.7144 156.062 23.9135 155.128 23.9135ZM155.633 21.5934C156.322 21.5934 156.943 21.4402 157.494 21.1339C158.061 20.8276 158.512 20.3835 158.849 19.8016C159.202 19.2043 159.378 18.5075 159.378 17.7112V16.7234C159.378 15.9424 159.202 15.2762 158.849 14.7249C158.497 14.1735 158.038 13.7524 157.471 13.4614C156.904 13.1705 156.284 13.025 155.61 13.025C154.86 13.025 154.194 13.2087 153.612 13.5763C153.045 13.9285 152.601 14.4262 152.279 15.0694C151.958 15.7126 151.797 16.463 151.797 17.3206C151.797 18.1936 151.958 18.9516 152.279 19.5948C152.616 20.238 153.076 20.7358 153.658 21.088C154.24 21.4249 154.898 21.5934 155.633 21.5934ZM171.331 23.9135C170.259 23.9135 169.324 23.7297 168.528 23.3622C167.732 22.9946 167.081 22.5122 166.575 21.915C166.07 21.3024 165.687 20.6209 165.427 19.8705C165.182 19.1048 165.059 18.3237 165.059 17.5274V17.0909C165.059 16.2793 165.182 15.4982 165.427 14.7478C165.687 13.9821 166.07 13.3006 166.575 12.7034C167.081 12.0908 167.716 11.6084 168.482 11.2562C169.263 10.8886 170.167 10.7048 171.193 10.7048C172.525 10.7048 173.635 10.9958 174.524 11.5778C175.412 12.1597 176.078 12.9178 176.522 13.8519C176.966 14.7708 177.188 15.7662 177.188 16.8382V17.9179H166.208V16.1032H175.374L174.639 17.022C174.639 16.195 174.508 15.4829 174.248 14.8857C173.988 14.2731 173.605 13.806 173.099 13.4844C172.594 13.1475 171.958 12.979 171.193 12.979C170.396 12.979 169.73 13.1628 169.194 13.5303C168.658 13.8979 168.26 14.4033 168 15.0465C167.739 15.6897 167.609 16.4477 167.609 17.3206C167.609 18.1476 167.739 18.8904 168 19.5489C168.26 20.1921 168.666 20.7051 169.217 21.088C169.769 21.4555 170.473 21.6393 171.331 21.6393C172.188 21.6393 172.893 21.4555 173.444 21.088C173.995 20.7051 174.332 20.261 174.455 19.7556H176.959C176.79 20.5979 176.446 21.333 175.925 21.9609C175.42 22.5888 174.776 23.0712 173.995 23.4081C173.214 23.745 172.326 23.9135 171.331 23.9135ZM180.088 23.5V11.1183H182.224V16.4477H181.971C181.971 15.2226 182.124 14.1889 182.431 13.3466C182.752 12.5043 183.227 11.8611 183.855 11.417C184.498 10.9728 185.295 10.7508 186.244 10.7508H186.359C187.324 10.7508 188.12 10.9728 188.748 11.417C189.391 11.8611 189.866 12.5043 190.172 13.3466C190.494 14.1889 190.655 15.2226 190.655 16.4477H189.919C189.919 15.2226 190.08 14.1889 190.402 13.3466C190.723 12.5043 191.206 11.8611 191.849 11.417C192.492 10.9728 193.289 10.7508 194.238 10.7508H194.353C195.318 10.7508 196.122 10.9728 196.765 11.417C197.408 11.8611 197.891 12.5043 198.212 13.3466C198.534 14.1889 198.695 15.2226 198.695 16.4477V23.5H196.007V16.0572C196.007 15.1537 195.777 14.4492 195.318 13.9438C194.874 13.4385 194.253 13.1858 193.457 13.1858C192.63 13.1858 191.972 13.4538 191.482 13.9898C190.991 14.5105 190.746 15.2379 190.746 16.1721V23.5H188.036V16.0572C188.036 15.1537 187.814 14.4492 187.37 13.9438C186.925 13.4385 186.305 13.1858 185.509 13.1858C184.682 13.1858 184.016 13.4538 183.51 13.9898C183.02 14.5105 182.775 15.2379 182.775 16.1721V23.5H180.088ZM201.744 28.347V25.9809H203.789C204.263 25.9809 204.669 25.9197 205.006 25.7972C205.343 25.69 205.619 25.4909 205.833 25.1999C206.047 24.9242 206.224 24.549 206.361 24.0743L209.968 11.1183H212.564L208.658 24.7175C208.413 25.5751 208.069 26.2719 207.625 26.8079C207.196 27.3439 206.645 27.7344 205.971 27.9795C205.312 28.2245 204.516 28.347 203.582 28.347H201.744ZM205.557 23.2243V21.042H208.222V23.2243H205.557ZM204.891 23.2243L200.687 11.1183H203.421L207.441 23.2243H204.891Z" fill="#0671E0"/>
</svg>
