<svg width="156" height="65" viewBox="0 0 156 65" fill="none" xmlns="http://www.w3.org/2000/svg">
<path d="M8.63511e-05 18.0081V33.9713C-0.00494844 34.8008 0.21027 35.6168 0.623761 36.3359C1.03725 37.055 1.6342 37.6515 2.35363 38.0644L16.1884 46.046C16.904 46.4592 17.7157 46.6767 18.5419 46.6767C19.3682 46.6767 20.1799 46.4592 20.8955 46.046L34.7917 38.0644C35.514 37.6548 36.1133 37.059 36.5272 36.3392C36.9411 35.6193 37.1545 34.8016 37.1452 33.9713V18.0081C37.1524 17.1782 36.938 16.3614 36.5243 15.6419C36.1106 14.9224 35.5125 14.3263 34.7917 13.915L20.8955 5.95387C20.1799 5.54074 19.3682 5.32324 18.5419 5.32324C17.7157 5.32324 16.904 5.54074 16.1884 5.95387L2.35363 13.9355C1.63862 14.3483 1.04477 14.9419 0.631668 15.6567C0.218567 16.3716 0.00075362 17.1825 8.63511e-05 18.0081V18.0081Z" fill="#EAE78E"/>
<path d="M18.5423 17.1074L10.5402 25.7848C10.4518 25.8849 10.3886 26.0046 10.3558 26.1341C10.323 26.2635 10.3215 26.3988 10.3516 26.5289C10.3816 26.659 10.4422 26.7801 10.5284 26.882C10.6146 26.984 10.7239 27.0639 10.8472 27.1151H18.5423V17.1074Z" fill="#3CA085"/>
<path d="M18.5423 23.2266L10.5402 31.9245C10.4518 32.0245 10.3886 32.1442 10.3558 32.2737C10.323 32.4031 10.3215 32.5384 10.3516 32.6685C10.3816 32.7986 10.4422 32.9197 10.5284 33.0216C10.6146 33.1236 10.7239 33.2035 10.8472 33.2547H18.5423V23.2266Z" fill="#EE468D"/>
<path d="M18.542 23.2266L26.6054 31.9245C26.6938 32.0245 26.757 32.1442 26.7898 32.2737C26.8227 32.4031 26.8241 32.5384 26.7941 32.6685C26.7641 32.7986 26.7034 32.9197 26.6172 33.0216C26.531 33.1236 26.4218 33.2035 26.2985 33.2547H18.542V23.2266Z" fill="#C83B77"/>
<path d="M18.542 17.1074L26.6054 25.7848C26.6938 25.8849 26.757 26.0046 26.7898 26.1341C26.8227 26.2635 26.8241 26.3988 26.7941 26.5289C26.7641 26.659 26.7034 26.7801 26.6172 26.882C26.531 26.984 26.4218 27.0639 26.2985 27.1151H18.542V17.1074Z" fill="#46BD9C"/>
<path d="M52.9659 30.7856V25.7258H58.8072C59.9865 25.7258 60.9737 25.4927 61.769 25.0265C62.5917 24.5603 63.2088 23.9159 63.6201 23.0931C64.0589 22.2704 64.2783 21.3243 64.2783 20.2548C64.2783 19.1852 64.0589 18.2391 63.6201 17.4164C63.2088 16.5937 62.5917 15.9629 61.769 15.5241C60.9737 15.0579 59.9865 14.8248 58.8072 14.8248H52.9659V9.76511H58.3136C60.8366 9.76511 62.9757 10.1765 64.7308 10.9992C66.5134 11.8219 67.8708 13.0011 68.8033 14.5369C69.7357 16.0452 70.2019 17.8415 70.2019 19.9257V20.5838C70.2019 22.6681 69.7357 24.478 68.8033 26.0138C67.8708 27.5221 66.5134 28.7013 64.7308 29.5515C62.9757 30.3742 60.8366 30.7856 58.3136 30.7856H52.9659ZM47.9473 40V9.76511H53.7886V40H47.9473ZM84.2453 40.7816C82.3256 40.7816 80.639 40.4525 79.1856 39.7943C77.7595 39.1361 76.5666 38.2586 75.6067 37.1616C74.6743 36.0372 73.9613 34.7895 73.4677 33.4183C73.0015 32.0471 72.7684 30.6484 72.7684 29.2224V28.4408C72.7684 26.9599 73.0015 25.5339 73.4677 24.1627C73.9613 22.7641 74.6743 21.53 75.6067 20.4604C76.5666 19.3635 77.7458 18.4996 79.1444 17.8689C80.5431 17.2107 82.1611 16.8816 83.9985 16.8816C86.4118 16.8816 88.4274 17.4164 90.0455 18.4859C91.6909 19.528 92.925 20.9129 93.7477 22.6406C94.5704 24.3409 94.9818 26.1783 94.9818 28.1529V30.2097H75.1954V26.7131H91.4029L89.6341 28.4408C89.6341 27.0148 89.4284 25.7944 89.0171 24.7797C88.6057 23.765 87.9749 22.9834 87.1248 22.435C86.3021 21.8865 85.26 21.6122 83.9985 21.6122C82.737 21.6122 81.6674 21.9002 80.7899 22.4761C79.9123 23.052 79.2404 23.8884 78.7742 24.9854C78.3354 26.0549 78.116 27.3439 78.116 28.8522C78.116 30.2508 78.3354 31.4986 78.7742 32.5955C79.213 33.6651 79.8849 34.5152 80.7899 35.146C81.6949 35.7493 82.8467 36.051 84.2453 36.051C85.6439 36.051 86.782 35.7767 87.6596 35.2282C88.5371 34.6523 89.0993 33.953 89.3461 33.1303H94.6115C94.2825 34.666 93.6517 36.0098 92.7193 37.1616C91.7869 38.3134 90.5939 39.2047 89.1405 39.8355C87.7144 40.4662 86.0827 40.7816 84.2453 40.7816ZM99.7584 40V17.6632H104.283V27.1245H104.16C104.16 23.9159 104.845 21.4888 106.217 19.8434C107.588 18.198 109.604 17.3752 112.264 17.3752H113.086V22.3527H111.523C109.604 22.3527 108.109 22.8737 107.039 23.9159C105.997 24.9305 105.476 26.4114 105.476 28.3585V40H99.7584ZM116.912 40V17.6632H121.437V27.1245H121.313C121.313 23.9159 121.999 21.4888 123.37 19.8434C124.741 18.198 126.757 17.3752 129.417 17.3752H130.24V22.3527H128.677C126.757 22.3527 125.262 22.8737 124.193 23.9159C123.151 24.9305 122.63 26.4114 122.63 28.3585V40H116.912ZM134.09 48.8031V43.9079H138.286C139.081 43.9079 139.739 43.7982 140.26 43.5788C140.809 43.3869 141.261 43.0578 141.618 42.5916C141.974 42.1528 142.248 41.5357 142.44 40.7404L148.446 17.6632H153.917L147.294 41.9745C146.856 43.6474 146.239 44.9774 145.443 45.9647C144.648 46.9794 143.62 47.7061 142.358 48.1449C141.124 48.5837 139.588 48.8031 137.751 48.8031H134.09ZM141.042 39.5064V34.9814H145.814V39.5064H141.042ZM139.108 39.5064L131.868 17.6632H137.627L144.497 39.5064H139.108Z" fill="#192B47"/>
<path d="M5.5207 62.23C4.79654 62.23 4.14053 62.1108 3.55268 61.8722C2.96482 61.6337 2.45791 61.2971 2.03193 60.8626C1.61447 60.4281 1.29072 59.917 1.06069 59.3291C0.830661 58.7327 0.715647 58.0852 0.715647 57.3866V57.1055C0.715647 56.5091 0.817882 55.934 1.02235 55.3803C1.23534 54.818 1.53779 54.3153 1.92969 53.8723C2.33011 53.4208 2.81573 53.0672 3.38654 52.8116C3.95736 52.5475 4.60059 52.4154 5.31623 52.4154C6.09152 52.4154 6.7816 52.5645 7.3865 52.8627C7.99139 53.1524 8.47701 53.5613 8.84335 54.0895C9.20969 54.6092 9.42268 55.2141 9.48232 55.9042H8.20438C8.14474 55.3845 7.97435 54.9543 7.6932 54.6135C7.41206 54.2642 7.06275 54.0044 6.64529 53.834C6.23635 53.655 5.79333 53.5656 5.31623 53.5656C4.83062 53.5656 4.38334 53.655 3.9744 53.834C3.56545 54.0044 3.21189 54.2514 2.9137 54.5752C2.62404 54.8989 2.39827 55.2866 2.2364 55.7381C2.07452 56.1896 1.99359 56.6965 1.99359 57.2588C1.99359 57.8978 2.07878 58.4601 2.24918 58.9457C2.42809 59.4228 2.67516 59.8232 2.99038 60.147C3.30561 60.4622 3.67621 60.7008 4.10219 60.8626C4.53669 61.0245 5.00953 61.1054 5.5207 61.1054C6.24487 61.1054 6.87958 60.9606 7.42484 60.6709C7.97861 60.3728 8.39607 59.9894 8.67722 59.5208L8.21716 61.0415V58.2684H9.39286V60.492C8.9754 61.0373 8.43867 61.4633 7.78266 61.77C7.12665 62.0767 6.37266 62.23 5.5207 62.23ZM5.18844 58.524V57.4761H10.1852V58.524H5.18844ZM13.0868 62V52.671H14.3136V62H13.0868ZM12.1411 53.6423V52.671H14.3136V53.6423H12.1411ZM21.0245 62.23C20.4281 62.23 19.9042 62.1278 19.4527 61.9233C19.0011 61.7189 18.6177 61.4505 18.3025 61.1182C17.9958 60.7774 17.7615 60.3983 17.5996 59.9809C17.4463 59.5634 17.3696 59.1374 17.3696 58.7029V58.4729C17.3696 58.0384 17.4505 57.6124 17.6124 57.1949C17.7743 56.769 18.0128 56.3898 18.3281 56.0576C18.6433 55.7168 19.0267 55.4484 19.4782 55.2525C19.9298 55.048 20.4452 54.9458 21.0245 54.9458C21.6039 54.9458 22.1193 55.048 22.5708 55.2525C23.0224 55.4484 23.4057 55.7168 23.721 56.0576C24.0362 56.3898 24.2747 56.769 24.4366 57.1949C24.5985 57.6124 24.6794 58.0384 24.6794 58.4729V58.7029C24.6794 59.1374 24.5985 59.5634 24.4366 59.9809C24.2833 60.3983 24.049 60.7774 23.7338 61.1182C23.427 61.4505 23.0479 61.7189 22.5964 61.9233C22.1448 62.1278 21.6209 62.23 21.0245 62.23ZM21.0245 61.131C21.5357 61.131 21.9702 61.0202 22.328 60.7987C22.6944 60.5687 22.9712 60.262 23.1587 59.8786C23.3546 59.4952 23.4526 59.065 23.4526 58.5879C23.4526 58.1023 23.3546 57.6678 23.1587 57.2844C22.9627 56.901 22.6816 56.5986 22.3152 56.3771C21.9574 56.1556 21.5272 56.0448 21.0245 56.0448C20.5304 56.0448 20.1001 56.1556 19.7338 56.3771C19.3675 56.5986 19.0863 56.901 18.8904 57.2844C18.6944 57.6678 18.5964 58.1023 18.5964 58.5879C18.5964 59.065 18.6901 59.4952 18.8776 59.8786C19.0735 60.262 19.3504 60.5687 19.7082 60.7987C20.0746 61.0202 20.5133 61.131 21.0245 61.131ZM31.3347 62.23C30.7724 62.23 30.2698 62.1065 29.8267 61.8594C29.3922 61.6124 29.0472 61.2545 28.7916 60.786C28.536 60.3089 28.3954 59.738 28.3699 59.0735H28.7021V62H27.7309V52.671H28.9577V57.2077L28.5232 58.1406C28.5573 57.3994 28.7064 56.7945 28.9705 56.3259C29.2346 55.8574 29.5797 55.5123 30.0056 55.2908C30.4401 55.0608 30.9172 54.9458 31.4369 54.9458C31.9226 54.9458 32.3656 55.0395 32.766 55.2269C33.1664 55.4058 33.5115 55.6572 33.8011 55.9809C34.0908 56.2961 34.3123 56.6667 34.4657 57.0927C34.619 57.5102 34.6957 57.9617 34.6957 58.4473V58.6774C34.6957 59.163 34.6148 59.6188 34.4529 60.0448C34.2995 60.4707 34.0738 60.8499 33.7756 61.1821C33.4774 61.5059 33.1196 61.7615 32.7021 61.9489C32.2932 62.1363 31.8374 62.23 31.3347 62.23ZM31.1941 61.1566C31.6542 61.1566 32.0546 61.0458 32.3954 60.8243C32.7362 60.6028 33.0003 60.3003 33.1877 59.917C33.3751 59.5251 33.4689 59.0735 33.4689 58.5623C33.4689 58.0512 33.3709 57.6039 33.1749 57.2205C32.9875 56.8371 32.7234 56.5432 32.3826 56.3387C32.0418 56.1257 31.6457 56.0192 31.1941 56.0192C30.7852 56.0192 30.4061 56.113 30.0568 56.3004C29.7075 56.4793 29.4263 56.7434 29.2133 57.0927C29.0089 57.4335 28.9066 57.8467 28.9066 58.3323V58.9202C28.9066 59.3887 29.0131 59.7892 29.2261 60.1214C29.4391 60.4537 29.7202 60.7093 30.0695 60.8882C30.4188 61.0671 30.7937 61.1566 31.1941 61.1566ZM41.8835 62V59.9553H41.679V57.5911C41.679 57.1225 41.5555 56.769 41.3084 56.5304C41.0699 56.2919 40.7163 56.1726 40.2477 56.1726C39.9836 56.1726 39.711 56.1769 39.4299 56.1854C39.1487 56.1939 38.8803 56.2024 38.6248 56.2109C38.3692 56.2194 38.1477 56.2322 37.9602 56.2493V55.1758C38.1477 55.1588 38.3436 55.146 38.5481 55.1375C38.7611 55.1204 38.9783 55.1119 39.1998 55.1119C39.4213 55.1034 39.6343 55.0991 39.8388 55.0991C40.5374 55.0991 41.1082 55.1843 41.5512 55.3547C41.9943 55.5166 42.3223 55.7849 42.5353 56.1598C42.7482 56.5347 42.8547 57.0416 42.8547 57.6806V62H41.8835ZM39.6471 62.1789C39.1359 62.1789 38.6929 62.0937 38.3181 61.9233C37.9517 61.7444 37.6663 61.4888 37.4618 61.1566C37.2659 60.8243 37.1679 60.4239 37.1679 59.9553C37.1679 59.4697 37.2744 59.065 37.4874 58.7413C37.7089 58.4175 38.0284 58.1747 38.4458 58.0128C38.8633 57.8424 39.366 57.7572 39.9538 57.7572H41.8068V58.6774H39.9027C39.4086 58.6774 39.0294 58.7966 38.7653 59.0352C38.5012 59.2737 38.3692 59.5804 38.3692 59.9553C38.3692 60.3302 38.5012 60.6326 38.7653 60.8626C39.0294 61.0927 39.4086 61.2077 39.9027 61.2077C40.1924 61.2077 40.4693 61.1566 40.7334 61.0543C40.9975 60.9436 41.2147 60.7647 41.3851 60.5176C41.564 60.262 41.662 59.9127 41.679 59.4697L42.0113 59.9553C41.9687 60.4409 41.8494 60.8499 41.6535 61.1821C41.466 61.5059 41.2019 61.7529 40.8612 61.9233C40.5289 62.0937 40.1242 62.1789 39.6471 62.1789ZM46.3971 62V52.671H47.624V62H46.3971ZM45.4515 53.6423V52.671H47.624V53.6423H45.4515ZM59.5429 62.23C58.691 62.23 57.9626 62.0809 57.3577 61.7828C56.7613 61.4846 56.2799 61.0969 55.9136 60.6198C55.5473 60.1427 55.2789 59.6273 55.1085 59.0735C54.9381 58.5112 54.8529 57.9702 54.8529 57.4505V57.1694C54.8529 56.6071 54.9381 56.0448 55.1085 55.4825C55.2874 54.9202 55.56 54.409 55.9264 53.949C56.2927 53.4889 56.7698 53.1183 57.3577 52.8372C57.9455 52.556 58.6484 52.4154 59.4663 52.4154C60.3012 52.4154 61.0168 52.5603 61.6132 52.8499C62.2096 53.1396 62.6824 53.5443 63.0317 54.064C63.381 54.5837 63.594 55.1971 63.6707 55.9042H62.3928C62.3246 55.376 62.1542 54.9415 61.8816 54.6007C61.6089 54.2514 61.2639 53.9916 60.8464 53.8212C60.4375 53.6508 59.9774 53.5656 59.4663 53.5656C58.9125 53.5656 58.4269 53.6636 58.0094 53.8595C57.592 54.0469 57.2427 54.3153 56.9615 54.6646C56.6889 55.0054 56.4801 55.4016 56.3353 55.8531C56.199 56.3046 56.1308 56.7945 56.1308 57.3227C56.1308 57.8254 56.199 58.3025 56.3353 58.754C56.4801 59.2056 56.6931 59.606 56.9743 59.9553C57.264 60.3046 57.6218 60.5815 58.0478 60.786C58.4737 60.9819 58.9721 61.0799 59.5429 61.0799C60.3438 61.0799 61.0168 60.8797 61.5621 60.4793C62.1073 60.0788 62.4396 59.4995 62.5589 58.7413H63.8368C63.7516 59.3802 63.5344 59.9638 63.1851 60.492C62.8443 61.0202 62.3672 61.442 61.7538 61.7572C61.1489 62.0724 60.4119 62.23 59.5429 62.23ZM69.8294 62.23C69.233 62.23 68.709 62.1278 68.2575 61.9233C67.806 61.7189 67.4226 61.4505 67.1074 61.1182C66.8006 60.7774 66.5664 60.3983 66.4045 59.9809C66.2511 59.5634 66.1745 59.1374 66.1745 58.7029V58.4729C66.1745 58.0384 66.2554 57.6124 66.4173 57.1949C66.5791 56.769 66.8177 56.3898 67.1329 56.0576C67.4481 55.7168 67.8315 55.4484 68.2831 55.2525C68.7346 55.048 69.25 54.9458 69.8294 54.9458C70.4087 54.9458 70.9241 55.048 71.3757 55.2525C71.8272 55.4484 72.2106 55.7168 72.5258 56.0576C72.841 56.3898 73.0796 56.769 73.2415 57.1949C73.4033 57.6124 73.4843 58.0384 73.4843 58.4729V58.7029C73.4843 59.1374 73.4033 59.5634 73.2415 59.9809C73.0881 60.3983 72.8538 60.7774 72.5386 61.1182C72.2319 61.4505 71.8528 61.7189 71.4012 61.9233C70.9497 62.1278 70.4257 62.23 69.8294 62.23ZM69.8294 61.131C70.3405 61.131 70.775 61.0202 71.1329 60.7987C71.4992 60.5687 71.7761 60.262 71.9635 59.8786C72.1595 59.4952 72.2575 59.065 72.2575 58.5879C72.2575 58.1023 72.1595 57.6678 71.9635 57.2844C71.7676 56.901 71.4864 56.5986 71.1201 56.3771C70.7623 56.1556 70.332 56.0448 69.8294 56.0448C69.3352 56.0448 68.905 56.1556 68.5386 56.3771C68.1723 56.5986 67.8912 56.901 67.6952 57.2844C67.4993 57.6678 67.4013 58.1023 67.4013 58.5879C67.4013 59.065 67.495 59.4952 67.6824 59.8786C67.8784 60.262 68.1553 60.5687 68.5131 60.7987C68.8794 61.0202 69.3182 61.131 69.8294 61.131ZM79.6795 62.23C79.0831 62.23 78.5592 62.1278 78.1076 61.9233C77.6561 61.7189 77.2727 61.4505 76.9575 61.1182C76.6508 60.7774 76.4165 60.3983 76.2546 59.9809C76.1013 59.5634 76.0246 59.1374 76.0246 58.7029V58.4729C76.0246 58.0384 76.1055 57.6124 76.2674 57.1949C76.4293 56.769 76.6678 56.3898 76.983 56.0576C77.2983 55.7168 77.6816 55.4484 78.1332 55.2525C78.5847 55.048 79.1002 54.9458 79.6795 54.9458C80.2588 54.9458 80.7743 55.048 81.2258 55.2525C81.6773 55.4484 82.0607 55.7168 82.3759 56.0576C82.6912 56.3898 82.9297 56.769 83.0916 57.1949C83.2535 57.6124 83.3344 58.0384 83.3344 58.4729V58.7029C83.3344 59.1374 83.2535 59.5634 83.0916 59.9809C82.9382 60.3983 82.704 60.7774 82.3887 61.1182C82.082 61.4505 81.7029 61.7189 81.2514 61.9233C80.7998 62.1278 80.2759 62.23 79.6795 62.23ZM79.6795 61.131C80.1907 61.131 80.6252 61.0202 80.983 60.7987C81.3493 60.5687 81.6262 60.262 81.8137 59.8786C82.0096 59.4952 82.1076 59.065 82.1076 58.5879C82.1076 58.1023 82.0096 57.6678 81.8137 57.2844C81.6177 56.901 81.3366 56.5986 80.9702 56.3771C80.6124 56.1556 80.1821 56.0448 79.6795 56.0448C79.1854 56.0448 78.7551 56.1556 78.3888 56.3771C78.0224 56.5986 77.7413 56.901 77.5453 57.2844C77.3494 57.6678 77.2514 58.1023 77.2514 58.5879C77.2514 59.065 77.3451 59.4952 77.5326 59.8786C77.7285 60.262 78.0054 60.5687 78.3632 60.7987C78.7296 61.0202 79.1683 61.131 79.6795 61.131ZM86.3859 64.5559V55.1758H87.3571V58.1278L87.1271 58.1023C87.1697 57.3696 87.323 56.7732 87.5872 56.3132C87.8598 55.8446 88.2133 55.4995 88.6478 55.278C89.0823 55.0565 89.5552 54.9458 90.0664 54.9458C90.5605 54.9458 91.0078 55.0395 91.4082 55.2269C91.8171 55.4143 92.1664 55.6699 92.4561 55.9937C92.7458 56.3174 92.9673 56.6923 93.1206 57.1183C93.274 57.5442 93.3507 57.9958 93.3507 58.4729V58.7029C93.3507 59.18 93.2697 59.6316 93.1079 60.0575C92.946 60.4835 92.716 60.8584 92.4178 61.1821C92.1281 61.5059 91.7788 61.7615 91.3699 61.9489C90.9694 62.1363 90.5264 62.23 90.0408 62.23C89.5552 62.23 89.0909 62.1235 88.6478 61.9105C88.2048 61.6976 87.8385 61.3525 87.5488 60.8754C87.2591 60.3983 87.093 59.7721 87.0504 58.9968L87.6127 60.0192V64.5559H86.3859ZM89.8491 61.1566C90.3092 61.1566 90.7096 61.0501 91.0504 60.8371C91.3912 60.6156 91.6553 60.3131 91.8427 59.9297C92.0301 59.5378 92.1238 59.0906 92.1238 58.5879C92.1238 58.0767 92.0301 57.6294 91.8427 57.2461C91.6553 56.8627 91.3912 56.5645 91.0504 56.3515C90.7096 56.13 90.3092 56.0192 89.8491 56.0192C89.4402 56.0192 89.061 56.113 88.7117 56.3004C88.3624 56.4793 88.0813 56.7434 87.8683 57.0927C87.6638 57.4335 87.5616 57.8467 87.5616 58.3323V58.9202C87.5616 59.3887 87.6681 59.7892 87.8811 60.1214C88.0941 60.4537 88.3752 60.7093 88.7245 60.8882C89.0738 61.0671 89.4487 61.1566 89.8491 61.1566ZM99.3117 62.23C98.7153 62.23 98.1998 62.1278 97.7653 61.9233C97.3308 61.7189 96.9773 61.4505 96.7047 61.1182C96.432 60.7774 96.2276 60.3983 96.0912 59.9809C95.9634 59.5634 95.8996 59.1374 95.8996 58.7029V58.4729C95.8996 58.0299 95.9634 57.5996 96.0912 57.1822C96.2276 56.7647 96.432 56.3898 96.7047 56.0576C96.9773 55.7168 97.3223 55.4484 97.7398 55.2525C98.1658 55.048 98.6642 54.9458 99.235 54.9458C99.9762 54.9458 100.585 55.1076 101.062 55.4314C101.548 55.7466 101.906 56.1556 102.136 56.6582C102.374 57.1609 102.494 57.6976 102.494 58.2684V58.8179H96.4363V57.8978H101.599L101.318 58.3962C101.318 57.9106 101.241 57.4931 101.088 57.1438C100.935 56.786 100.705 56.5091 100.398 56.3132C100.091 56.1172 99.7036 56.0192 99.235 56.0192C98.7494 56.0192 98.3447 56.13 98.0209 56.3515C97.7057 56.573 97.4672 56.8755 97.3053 57.2588C97.1519 57.6422 97.0753 58.0852 97.0753 58.5879C97.0753 59.0735 97.1519 59.5123 97.3053 59.9042C97.4672 60.2876 97.7142 60.5943 98.0465 60.8243C98.3788 61.0458 98.8005 61.1566 99.3117 61.1566C99.8484 61.1566 100.283 61.0373 100.615 60.7987C100.956 60.5602 101.16 60.2833 101.229 59.9681H102.379C102.285 60.4367 102.098 60.8413 101.816 61.1821C101.535 61.5229 101.182 61.7828 100.756 61.9617C100.33 62.1406 99.8484 62.23 99.3117 62.23ZM105.45 62V55.1758H106.421V57.9873H106.37C106.37 56.9905 106.587 56.262 107.022 55.802C107.465 55.3334 108.125 55.0991 109.002 55.0991H109.232V56.1981H108.798C108.116 56.1981 107.592 56.3813 107.226 56.7477C106.86 57.1055 106.676 57.6252 106.676 58.3068V62H105.45ZM116.008 62V59.9553H115.804V57.5911C115.804 57.1225 115.68 56.769 115.433 56.5304C115.194 56.2919 114.841 56.1726 114.372 56.1726C114.108 56.1726 113.836 56.1769 113.554 56.1854C113.273 56.1939 113.005 56.2024 112.749 56.2109C112.494 56.2194 112.272 56.2322 112.085 56.2493V55.1758C112.272 55.1588 112.468 55.146 112.673 55.1375C112.886 55.1204 113.103 55.1119 113.324 55.1119C113.546 55.1034 113.759 55.0991 113.963 55.0991C114.662 55.0991 115.233 55.1843 115.676 55.3547C116.119 55.5166 116.447 55.7849 116.66 56.1598C116.873 56.5347 116.979 57.0416 116.979 57.6806V62H116.008ZM113.772 62.1789C113.26 62.1789 112.817 62.0937 112.443 61.9233C112.076 61.7444 111.791 61.4888 111.586 61.1566C111.39 60.8243 111.292 60.4239 111.292 59.9553C111.292 59.4697 111.399 59.065 111.612 58.7413C111.833 58.4175 112.153 58.1747 112.57 58.0128C112.988 57.8424 113.491 57.7572 114.078 57.7572H115.931V58.6774H114.027C113.533 58.6774 113.154 58.7966 112.89 59.0352C112.626 59.2737 112.494 59.5804 112.494 59.9553C112.494 60.3302 112.626 60.6326 112.89 60.8626C113.154 61.0927 113.533 61.2077 114.027 61.2077C114.317 61.2077 114.594 61.1566 114.858 61.0543C115.122 60.9436 115.339 60.7647 115.51 60.5176C115.689 60.262 115.787 59.9127 115.804 59.4697L116.136 59.9553C116.093 60.4409 115.974 60.8499 115.778 61.1821C115.591 61.5059 115.326 61.7529 114.986 61.9233C114.653 62.0937 114.249 62.1789 113.772 62.1789ZM123.103 62.0767C122.592 62.0767 122.149 62.0043 121.774 61.8594C121.408 61.7146 121.122 61.4675 120.918 61.1182C120.722 60.7604 120.624 60.279 120.624 59.6741V53.1055H121.8V59.8275C121.8 60.1938 121.898 60.4793 122.094 60.6837C122.298 60.8797 122.583 60.9776 122.95 60.9776H124.151V62.0767H123.103ZM119.448 56.0959V55.1758H124.151V56.0959H119.448ZM127.433 62V55.1758H128.659V62H127.433ZM126.385 56.147V55.1758H128.659V56.147H126.385ZM127.778 54.0768C127.505 54.0768 127.3 54.0044 127.164 53.8595C127.036 53.7147 126.972 53.5315 126.972 53.31C126.972 53.0885 127.036 52.9053 127.164 52.7605C127.3 52.6157 127.505 52.5432 127.778 52.5432C128.05 52.5432 128.25 52.6157 128.378 52.7605C128.515 52.9053 128.583 53.0885 128.583 53.31C128.583 53.5315 128.515 53.7147 128.378 53.8595C128.25 54.0044 128.05 54.0768 127.778 54.0768ZM133.702 62L131.376 55.1758H132.654L134.929 62H133.702ZM134.009 62V61.0288H135.491V62H134.009ZM134.597 62L136.578 55.1758H137.779L135.76 62H134.597ZM143.374 62.23C142.778 62.23 142.262 62.1278 141.828 61.9233C141.393 61.7189 141.04 61.4505 140.767 61.1182C140.495 60.7774 140.29 60.3983 140.154 59.9809C140.026 59.5634 139.962 59.1374 139.962 58.7029V58.4729C139.962 58.0299 140.026 57.5996 140.154 57.1822C140.29 56.7647 140.495 56.3898 140.767 56.0576C141.04 55.7168 141.385 55.4484 141.802 55.2525C142.228 55.048 142.727 54.9458 143.297 54.9458C144.039 54.9458 144.648 55.1076 145.125 55.4314C145.611 55.7466 145.968 56.1556 146.198 56.6582C146.437 57.1609 146.556 57.6976 146.556 58.2684V58.8179H140.499V57.8978H145.662L145.381 58.3962C145.381 57.9106 145.304 57.4931 145.15 57.1438C144.997 56.786 144.767 56.5091 144.46 56.3132C144.154 56.1172 143.766 56.0192 143.297 56.0192C142.812 56.0192 142.407 56.13 142.083 56.3515C141.768 56.573 141.53 56.8755 141.368 57.2588C141.214 57.6422 141.138 58.0852 141.138 58.5879C141.138 59.0735 141.214 59.5123 141.368 59.9042C141.53 60.2876 141.777 60.5943 142.109 60.8243C142.441 61.0458 142.863 61.1566 143.374 61.1566C143.911 61.1566 144.345 61.0373 144.678 60.7987C145.018 60.5602 145.223 60.2833 145.291 59.9681H146.441C146.347 60.4367 146.16 60.8413 145.879 61.1821C145.598 61.5229 145.244 61.7828 144.818 61.9617C144.392 62.1406 143.911 62.23 143.374 62.23Z" fill="#000E3B"/>
</svg>
